<?xml version="1.0" standalone="no"?>
<!DOCTYPE svg PUBLIC "-//W3C//DTD SVG 20010904//EN"
 "http://www.w3.org/TR/2001/REC-SVG-20010904/DTD/svg10.dtd">
<svg version="1.0" xmlns="http://www.w3.org/2000/svg"
 width="1200.000000pt" height="1200.000000pt" viewBox="0 0 1200.000000 1200.000000"
 preserveAspectRatio="xMidYMid meet">

<g transform="translate(0.000000,1200.000000) scale(0.100000,-0.100000)"
fill="#000000" stroke="none">
<path d="M4685 8249 c-4 -5 4 -27 18 -48 58 -88 113 -215 156 -366 27 -92 50
-128 104 -160 50 -29 140 -44 151 -26 8 13 4 14 -78 31 -77 16 -109 47 -131
126 -45 164 -80 253 -145 362 -31 52 -31 54 -8 47 38 -12 166 -94 232 -150 73
-63 115 -130 160 -256 19 -51 38 -95 44 -97 20 -6 22 18 7 80 -26 99 -71 183
-137 254 -118 126 -345 250 -373 203z"/>
<path d="M5477 8183 c-2 -4 -12 -31 -21 -59 -9 -29 -44 -93 -76 -144 -65 -101
-76 -136 -67 -212 8 -64 65 -164 83 -146 2 3 -7 25 -20 49 -50 90 -43 179 19
266 19 26 48 70 64 97 l30 50 11 -30 c46 -119 49 -227 10 -354 -21 -68 -13
-102 15 -64 59 78 68 267 22 424 -16 52 -32 101 -36 109 -9 18 -27 25 -34 14z"/>
<path d="M7882 7932 c-77 -158 -99 -283 -67 -390 28 -93 40 -66 40 90 l0 143
37 78 c35 73 58 97 58 61 0 -9 19 -55 41 -103 64 -134 58 -222 -23 -307 -20
-21 -26 -34 -18 -39 18 -11 87 72 106 127 22 68 15 127 -29 230 -21 47 -43
114 -50 149 -8 41 -18 65 -27 66 -10 2 -33 -34 -68 -105z"/>
<path d="M8598 7955 c-197 -69 -331 -174 -400 -315 -43 -88 -49 -113 -28 -117
10 -2 30 26 59 84 62 122 135 193 266 260 109 55 166 76 191 71 12 -2 2 -20
-40 -72 -67 -81 -94 -125 -161 -260 -61 -124 -79 -137 -180 -144 -85 -5 -99
-25 -22 -30 114 -7 175 36 241 171 55 112 110 200 183 289 30 37 52 72 48 78
-10 17 -86 10 -157 -15z"/>
<path d="M4987 7853 c-3 -4 49 -67 115 -138 127 -137 244 -277 344 -410 65
-86 144 -201 144 -209 0 -2 -26 11 -57 30 -89 53 -207 93 -325 109 -83 11 -52
-10 43 -29 l91 -18 -44 -27 c-39 -23 -52 -26 -138 -25 -83 0 -106 5 -177 33
-91 36 -138 67 -113 74 8 2 65 20 126 41 155 50 225 47 299 -13 15 -12 14 -9
-3 10 -13 15 -46 39 -75 55 -71 39 -134 37 -247 -6 -52 -20 -107 -33 -143 -35
-58 -2 -85 -14 -73 -33 9 -14 182 -114 241 -139 115 -48 226 -53 304 -14 40
21 66 52 54 65 -14 13 12 4 80 -29 40 -19 107 -62 151 -95 65 -49 87 -74 128
-141 81 -134 174 -309 233 -434 l56 -118 -68 64 c-81 76 -158 128 -250 171
-38 17 -79 40 -93 52 -14 12 -19 14 -12 4 12 -15 10 -16 -25 -5 -21 6 -45 16
-53 22 -9 7 -28 9 -45 5 -26 -6 -28 -8 -10 -14 11 -4 28 -12 37 -17 10 -5 28
-9 41 -9 13 0 27 -4 33 -8 5 -4 27 -14 49 -21 112 -37 279 -158 368 -265 71
-86 113 -176 186 -390 34 -98 61 -180 61 -183 0 -3 -21 14 -47 39 -53 49 -146
114 -208 146 -83 42 -276 84 -289 64 -3 -5 23 -12 57 -14 185 -16 420 -180
512 -359 36 -70 105 -395 139 -656 l14 -111 -28 -114 c-50 -195 -90 -409 -97
-509 -5 -90 -4 -98 14 -107 34 -19 52 5 68 93 7 44 24 145 37 225 l23 145 3
-259 c1 -171 6 -264 13 -273 17 -20 47 -16 61 9 17 30 16 469 -1 655 l-12 131
36 124 c48 159 113 339 183 507 47 112 67 145 112 195 136 148 369 248 540
232 45 -4 60 -3 50 4 -8 5 -56 10 -106 10 -136 0 -314 -57 -419 -134 -16 -12
-35 -26 -42 -30 -29 -17 192 373 252 444 123 147 346 262 569 291 53 8 96 17
96 21 0 4 -9 8 -21 8 -11 0 -17 4 -14 10 3 5 -10 3 -29 -5 -42 -18 -90 -20
-80 -4 3 6 -4 4 -17 -4 -13 -9 -51 -23 -85 -31 -120 -31 -270 -105 -343 -170
l-25 -21 24 35 c109 159 250 343 362 472 80 91 202 158 350 193 48 11 57 11
48 0 -8 -10 -4 -21 17 -45 75 -89 230 -100 431 -30 109 38 157 62 157 79 0 8
-25 20 -66 30 -36 9 -96 35 -135 57 -126 75 -182 81 -281 34 -35 -16 -63 -32
-63 -35 0 -3 15 2 33 12 56 30 132 22 213 -21 38 -20 98 -51 133 -68 73 -36
72 -38 -45 -68 -89 -23 -211 -26 -267 -6 -20 8 -54 27 -75 42 l-37 29 55 7
c30 4 72 5 93 2 21 -3 37 -2 37 4 0 17 -97 23 -187 12 -49 -6 -126 -24 -173
-40 -47 -15 -86 -27 -88 -26 -5 6 266 268 358 346 52 44 154 124 227 178 114
84 154 123 126 122 -21 -1 -331 -236 -468 -354 -129 -112 -121 -108 -93 -51
36 71 74 186 103 312 37 155 36 153 26 153 -5 0 -17 -35 -26 -77 -41 -184
-116 -361 -209 -493 -41 -57 -257 -300 -263 -295 -2 1 2 17 7 36 31 107 52
384 40 514 -7 76 -8 74 -13 -117 -2 -54 -6 -100 -9 -104 -11 -11 -67 100 -79
156 -20 95 -7 178 41 277 l42 88 18 -40 c83 -192 96 -306 47 -425 -14 -36 -20
-56 -12 -46 35 46 58 131 58 206 0 64 -7 94 -47 205 -26 72 -51 134 -56 138
-11 12 -95 -145 -115 -218 -25 -84 -16 -186 23 -270 17 -35 42 -71 56 -80 24
-16 26 -21 20 -69 -23 -193 -59 -299 -131 -383 -81 -96 -224 -291 -306 -415
-39 -59 -72 -107 -73 -105 -2 2 1 19 6 38 40 135 66 400 51 504 l-8 60 -2 -79
c-2 -145 -48 -405 -102 -571 -16 -49 -84 -200 -152 -335 -120 -240 -204 -437
-270 -634 l-33 -98 -28 153 c-22 120 -27 169 -22 226 22 261 136 567 268 721
15 18 28 38 28 45 0 7 -12 -1 -26 -18 -14 -16 -40 -47 -58 -67 -18 -21 -41
-57 -52 -80 l-19 -42 -6 29 c-6 26 -7 25 -8 -13 0 -23 -10 -60 -20 -80 -32
-63 -88 -242 -106 -337 -9 -49 -19 -101 -22 -115 -3 -18 -17 17 -45 119 -21
80 -58 199 -80 265 -61 183 -68 233 -75 508 -5 229 -2 279 22 398 3 14 -1 8
-10 -14 -34 -88 -49 -207 -49 -397 l0 -187 -37 87 c-50 120 -156 336 -228 463
-39 70 -63 127 -70 164 -15 81 -15 324 1 324 29 0 80 55 114 126 32 64 38 87
42 157 3 71 0 95 -28 182 -18 55 -36 104 -40 108 -9 10 -95 -130 -142 -228
-26 -57 -31 -80 -32 -144 0 -70 19 -170 30 -158 3 2 0 26 -7 51 -16 66 -7 171
20 226 38 75 116 210 122 210 9 0 40 -108 49 -171 15 -103 -22 -225 -91 -304
-28 -31 -59 -50 -44 -25 3 5 6 30 7 54 0 25 4 43 9 41 4 -3 11 0 15 6 4 8 3 9
-4 5 -16 -9 -15 22 1 101 8 34 10 60 6 57 -4 -2 -10 -22 -14 -44 -4 -22 -10
-38 -13 -36 -4 2 -7 -10 -8 -27 0 -18 -6 -72 -13 -122 -7 -49 -14 -153 -15
-230 l-1 -141 -83 126 c-89 134 -158 272 -191 385 -25 88 -51 241 -52 320 -2
110 -17 128 -18 23 -1 -118 22 -304 49 -390 11 -35 20 -64 20 -66 0 -1 -30 35
-67 80 -161 200 -435 490 -446 471z"/>
<path d="M6895 7118 c-14 -42 -58 -243 -66 -309 -19 -137 19 -282 81 -314 34
-18 44 -8 26 26 -64 120 -61 108 -61 224 0 81 6 137 24 213 13 56 28 102 32
102 15 0 132 -137 155 -181 45 -91 50 -218 10 -312 -26 -63 -7 -41 27 31 28
59 32 77 32 152 0 118 -27 174 -142 291 -84 86 -109 102 -118 77z"/>
<path d="M6266 7055 c-103 -70 -138 -105 -178 -179 -31 -57 -33 -67 -33 -156
0 -63 6 -107 16 -130 15 -33 15 -31 11 60 -4 109 15 179 71 252 35 46 172 146
184 134 4 -4 7 -78 8 -164 0 -184 -11 -229 -81 -318 -49 -64 -53 -74 -25 -74
51 0 117 98 140 208 12 56 13 243 2 352 -4 47 -10 65 -21 67 -8 1 -50 -22 -94
-52z"/>
<path d="M5377 6830 c-15 -4 -62 -26 -105 -48 -42 -21 -89 -42 -104 -46 -35
-8 -36 -24 -1 -37 14 -5 68 -39 120 -75 51 -36 113 -74 136 -84 69 -30 152
-30 188 -1 l24 20 -76 -6 c-99 -7 -143 8 -265 89 -51 35 -94 65 -93 68 0 3 40
25 88 49 98 50 154 57 223 28 47 -20 124 -91 148 -136 11 -20 19 -30 20 -23 0
24 -38 87 -77 123 -69 66 -163 99 -226 79z"/>
<path d="M7001 6804 c0 -11 3 -14 6 -6 3 7 2 16 -1 19 -3 4 -6 -2 -5 -13z"/>
<path d="M7645 6671 c-58 -27 -145 -107 -145 -133 0 -6 16 7 35 30 21 24 63
54 100 73 56 27 72 31 124 27 62 -4 106 -28 200 -106 l34 -29 -109 -48 c-128
-56 -220 -69 -288 -41 -48 20 -62 20 -45 0 28 -34 70 -47 143 -42 60 4 90 13
192 61 66 32 128 57 137 57 30 0 28 20 -3 38 -18 9 -58 37 -89 60 -118 92
-181 103 -286 53z"/>
<path d="M6740 6375 c-29 -30 -92 -75 -139 -102 -145 -82 -185 -138 -186 -262
0 -51 4 -76 13 -78 9 -3 12 11 12 54 1 109 48 179 165 244 39 21 93 54 120 74
l50 35 3 -71 c6 -134 -35 -225 -160 -354 -60 -63 -75 -85 -66 -93 19 -15 84
19 140 75 86 85 148 236 148 361 0 76 -17 159 -34 165 -7 3 -37 -19 -66 -48z"/>
<path d="M8796 6399 c-7 -29 -106 -689 -106 -705 0 -12 78 -29 88 -19 3 3 16
73 28 156 13 83 24 152 26 154 3 2 215 55 221 55 2 0 9 -69 16 -152 17 -220
14 -208 68 -208 l46 0 -7 83 c-27 335 -27 336 -59 359 l-30 21 -116 -26 c-63
-14 -118 -24 -120 -21 -2 2 5 72 17 156 12 83 20 153 18 156 -2 2 -22 6 -45 9
-36 5 -41 3 -45 -18z"/>
<path d="M2245 6346 c-39 -18 -77 -41 -85 -51 -11 -13 -18 -64 -25 -181 -6
-90 -14 -166 -17 -169 -4 -4 -45 -3 -91 2 l-85 9 -4 -46 c-3 -25 -4 -46 -4
-47 1 -1 41 -6 89 -11 49 -5 89 -11 91 -13 1 -2 -1 -47 -4 -99 -3 -52 -6 -96
-5 -96 0 -1 21 -4 47 -6 l47 -5 7 100 7 100 92 -7 93 -7 4 45 c4 52 8 50 -115
61 l-68 7 7 121 c10 187 9 184 80 215 l61 27 -18 43 c-10 23 -22 42 -26 41 -4
0 -40 -15 -78 -33z"/>
<path d="M2536 6314 c-16 -82 -86 -607 -82 -612 3 -3 25 -6 48 -6 l43 -1 43
313 c24 172 42 316 39 318 -3 3 -23 8 -45 11 -38 5 -40 4 -46 -23z"/>
<path d="M9843 6261 l-31 -26 -16 -290 c-9 -159 -16 -300 -16 -311 0 -19 7
-23 44 -26 l45 -3 5 45 c3 25 11 151 17 280 7 129 15 238 19 243 7 8 226 -36
238 -47 6 -7 32 -179 27 -184 -1 -1 -56 -14 -122 -29 l-120 -26 10 -41 c5 -23
12 -43 13 -45 2 -2 66 9 142 24 131 27 141 31 159 59 20 31 20 33 4 156 -16
116 -38 180 -61 180 -5 0 -80 15 -167 34 l-160 33 -30 -26z"/>
<path d="M4648 6262 l-48 -3 5 -197 c3 -108 8 -234 11 -279 l6 -83 45 0 45 0
-4 164 -4 165 138 63 c76 35 138 68 138 75 0 7 -7 28 -16 46 l-17 35 -114 -54
c-63 -30 -119 -54 -123 -54 -5 0 -10 28 -12 63 l-3 62 -47 -3z"/>
<path d="M4243 6246 c-91 -9 -117 -15 -133 -31 -17 -17 -25 -55 -46 -209 -23
-174 -24 -189 -9 -212 21 -33 30 -36 247 -76 l187 -35 6 31 c4 17 8 38 11 47
4 13 -26 21 -181 50 -102 18 -185 38 -185 44 1 24 38 286 41 290 2 1 58 6 124
10 l120 7 22 -46 23 -46 -23 -5 c-12 -3 -71 -16 -132 -28 -66 -14 -110 -28
-109 -35 1 -7 2 -22 3 -34 3 -48 8 -49 175 -14 164 35 180 42 192 92 7 25 -56
155 -91 190 -28 28 -55 29 -242 10z"/>
<path d="M8387 6245 c-193 -16 -194 -16 -202 -165 -8 -146 -8 -146 172 -171
76 -11 148 -22 161 -24 l22 -5 -27 -48 c-16 -27 -35 -58 -43 -70 l-15 -22
-129 25 c-72 13 -132 23 -134 21 -9 -9 -21 -81 -14 -87 4 -3 71 -18 149 -32
107 -20 149 -24 170 -16 21 7 44 37 94 127 l67 117 -19 36 c-18 36 -20 37
-106 49 -48 7 -124 18 -168 24 l-80 11 0 60 0 59 40 7 c22 4 88 10 148 14
l107 7 0 49 c0 45 -2 49 -22 48 -13 -1 -90 -7 -171 -14z"/>
<path d="M3253 6237 l-31 -12 86 -228 86 -228 45 3 45 3 54 133 c30 72 58 132
61 132 3 0 29 -51 57 -113 l50 -112 45 -3 44 -3 97 194 96 194 -42 20 -42 21
-73 -145 c-42 -85 -76 -142 -81 -137 -5 5 -31 59 -59 119 l-50 110 -44 3 -44
3 -54 -130 c-30 -72 -57 -131 -60 -131 -3 0 -33 72 -65 160 -62 169 -62 169
-121 147z"/>
<path d="M2839 6223 c-122 -5 -126 -10 -139 -184 -5 -74 -12 -155 -14 -181 -4
-40 -1 -52 19 -76 l24 -29 193 -11 193 -11 29 27 28 27 -6 200 c-6 185 -8 201
-28 222 -23 25 -40 26 -299 16z m231 -243 l0 -150 -112 5 c-62 3 -128 8 -146
11 -30 5 -32 7 -28 37 3 18 8 77 11 132 4 59 11 103 18 107 7 4 67 8 135 8
l122 0 0 -150z"/>
<path d="M9435 6190 c-178 -8 -172 0 -190 -232 l-14 -183 27 -27 c27 -27 30
-28 220 -39 l193 -11 26 23 26 24 -7 205 -7 205 -27 22 c-29 24 -22 24 -247
13z m185 -242 l0 -151 -107 6 c-58 4 -124 7 -145 7 l-39 0 5 43 c3 23 8 86 12
139 l6 97 51 4 c29 2 89 4 135 5 l82 2 0 -152z"/>
<path d="M5695 6184 c-6 -1 -22 -5 -36 -8 -14 -3 -54 -30 -87 -60 -34 -30 -90
-71 -126 -91 -99 -55 -98 -79 11 -137 163 -88 319 -114 416 -70 43 19 67 45
55 58 -3 3 -44 -3 -92 -12 -74 -15 -97 -16 -154 -5 -58 11 -232 81 -232 94 0
3 21 18 48 33 26 15 74 53 107 84 33 32 70 62 82 69 62 32 180 -3 266 -80 31
-28 57 -46 57 -41 0 19 -97 97 -154 125 -52 26 -137 47 -161 41z"/>
<path d="M7250 6091 c-60 -19 -110 -43 -153 -73 -48 -34 -21 -32 32 2 90 57
195 75 266 46 21 -9 47 -34 67 -63 18 -26 59 -75 90 -107 32 -33 58 -61 58
-62 0 -12 -149 -47 -215 -51 -80 -5 -125 5 -232 48 -18 7 -35 10 -39 6 -9 -9
42 -64 76 -82 51 -27 145 -37 231 -25 204 28 310 95 232 147 -34 23 -129 117
-171 171 -50 63 -133 78 -242 43z"/>
<path d="M5030 4845 l0 -145 85 0 c78 0 85 2 85 20 0 18 -7 20 -60 20 l-60 0
0 45 0 45 50 0 c43 0 50 3 50 20 0 17 -7 20 -50 20 l-50 0 0 40 0 40 55 0 c48
0 55 2 55 20 0 18 -7 20 -80 20 l-80 0 0 -145z"/>
<path d="M5335 4981 c-54 -17 -81 -55 -65 -95 6 -18 29 -35 67 -54 48 -22 58
-32 58 -52 0 -23 -4 -25 -45 -24 -25 0 -52 4 -61 8 -11 5 -19 2 -23 -10 -8
-20 5 -30 56 -44 63 -18 131 22 131 75 0 35 -20 55 -80 81 -57 26 -66 35 -57
59 6 13 18 16 62 13 36 -2 57 1 59 9 8 21 -65 46 -102 34z"/>
<path d="M5480 4970 c0 -17 7 -20 40 -20 l40 0 0 -125 0 -125 25 0 25 0 0 125
0 125 40 0 c33 0 40 3 40 20 0 19 -7 20 -105 20 -98 0 -105 -1 -105 -20z"/>
<path d="M6871 4979 c-40 -16 -53 -30 -41 -45 9 -10 17 -9 40 4 38 22 64 8 68
-37 4 -38 -20 -80 -77 -136 -61 -59 -56 -65 49 -65 83 0 90 1 90 20 0 17 -7
20 -50 20 -52 0 -61 8 -33 31 29 25 73 102 73 130 0 55 -66 98 -119 78z"/>
<path d="M7110 4977 c-80 -40 -79 -226 1 -264 36 -17 80 -1 103 38 24 40 25
143 3 186 -10 18 -29 35 -48 42 -18 6 -32 11 -33 11 -1 0 -12 -6 -26 -13z m67
-57 c16 -32 16 -118 0 -150 -16 -31 -46 -38 -64 -14 -16 22 -18 147 -2 175 14
27 50 21 66 -11z"/>
<path d="M7328 4973 c-46 -19 -50 -43 -8 -43 l30 0 0 -95 0 -95 -30 0 c-23 0
-30 -4 -30 -20 0 -18 7 -20 80 -20 73 0 80 2 80 20 0 15 -7 20 -25 20 l-25 0
0 125 c0 140 1 138 -72 108z"/>
<path d="M7555 4976 c-50 -22 -69 -82 -39 -124 24 -35 59 -45 95 -27 27 15 29
14 29 -4 0 -57 -51 -98 -91 -73 -13 9 -20 8 -29 -3 -10 -12 -6 -18 24 -30 31
-13 40 -13 70 -1 99 41 93 241 -9 269 -11 4 -34 0 -50 -7z m75 -58 c21 -38 4
-63 -41 -63 -31 0 -34 3 -37 33 -5 49 4 64 35 60 17 -2 33 -13 43 -30z"/>
<path d="M5830 4751 c-7 -15 -6 -23 6 -35 8 -9 17 -16 19 -16 2 0 11 7 19 16
18 18 6 54 -19 54 -8 0 -19 -9 -25 -19z"/>
<path d="M5827 673 c-4 -3 -7 -17 -7 -30 0 -26 -3 -27 -101 -24 -57 1 -69 -2
-92 -23 -15 -14 -27 -35 -28 -48 -1 -18 -3 -16 -10 9 -13 46 -46 64 -105 60
l-49 -3 -3 -93 c-3 -84 -1 -92 15 -89 14 2 19 14 21 53 4 79 10 95 35 95 37 0
47 -19 47 -88 0 -55 2 -63 18 -60 12 2 18 15 20 48 l4 45 11 -35 c15 -45 76
-78 113 -61 15 7 24 7 24 1 0 -6 -11 -15 -25 -22 -19 -9 -29 -8 -49 6 -47 31
-78 9 -38 -27 44 -40 121 -28 147 24 9 17 15 56 15 99 0 56 3 70 15 70 12 0
15 -14 15 -65 0 -73 11 -85 74 -85 l36 0 0 69 c0 61 3 70 20 76 11 4 20 15 20
26 0 17 -5 19 -42 16 -52 -5 -68 0 -68 23 0 20 -23 43 -33 33z m-91 -118 c19
-29 11 -60 -22 -81 -22 -15 -26 -15 -49 0 -27 18 -33 53 -15 87 16 28 65 25
86 -6z m154 -35 c0 -49 -3 -58 -15 -54 -11 5 -15 21 -15 60 0 41 4 54 15 54
12 0 15 -13 15 -60z"/>
<path d="M5233 607 c-7 -12 -5 -215 2 -227 11 -17 35 9 35 37 0 21 2 22 21 13
51 -28 129 30 129 97 0 25 -8 43 -29 64 -27 27 -35 29 -91 27 -34 -2 -64 -7
-67 -11z m131 -49 c22 -32 20 -51 -10 -79 -23 -22 -27 -23 -52 -8 -30 16 -40
56 -22 89 15 28 64 27 84 -2z"/>
<path d="M5989 591 c-74 -74 9 -204 100 -156 17 8 35 24 41 35 10 19 12 18 38
-10 38 -42 78 -48 122 -18 38 26 52 58 25 58 -9 0 -29 -9 -44 -21 -32 -24 -59
-20 -79 11 -12 19 -10 20 63 20 86 0 96 9 71 59 -20 37 -44 51 -88 51 -39 0
-76 -23 -88 -54 -8 -21 -8 -21 -15 -1 -23 59 -99 73 -146 26z m99 -28 c2 -9
-9 -13 -37 -13 -32 0 -39 3 -34 16 7 18 64 16 71 -3z m192 2 c11 -13 5 -15
-40 -15 -45 0 -51 2 -40 15 7 8 25 15 40 15 15 0 33 -7 40 -15z m-155 -63
c-11 -4 -32 -15 -47 -25 -29 -20 -60 -12 -72 18 -4 13 6 15 67 14 40 -1 63 -4
52 -7z"/>
<path d="M6421 596 c-82 -88 29 -237 114 -151 14 13 25 20 25 14 0 -16 63 -38
93 -32 15 3 36 17 47 31 l20 25 0 -27 c0 -19 5 -26 20 -26 18 0 20 7 20 64 0
67 15 94 45 82 11 -4 15 -22 15 -76 0 -63 2 -70 20 -70 18 0 20 7 20 59 0 75
6 91 36 91 22 0 23 -4 26 -72 2 -60 6 -73 21 -76 15 -3 17 6 17 76 0 64 -4 82
-18 95 -20 19 -59 22 -82 7 -9 -5 -19 -5 -26 1 -6 5 -33 8 -60 6 -41 -2 -50
-6 -52 -24 -3 -21 -3 -21 -27 3 -31 31 -94 33 -119 5 -17 -19 -18 -19 -37 0
-28 28 -89 26 -118 -5z m103 -41 c9 -13 16 -29 16 -35 0 -18 -43 -60 -61 -60
-20 0 -49 36 -49 60 0 27 30 60 54 60 14 0 30 -10 40 -25z m144 13 c19 -19 14
-73 -8 -93 -42 -38 -94 18 -71 78 8 21 17 27 39 27 15 0 33 -5 40 -12z"/>
<path d="M6344 449 c-8 -14 11 -33 25 -25 16 10 13 36 -3 36 -8 0 -18 -5 -22
-11z"/>
</g>
</svg>
